<svg id="svg" version="1.1" xmlns="http://www.w3.org/2000/svg" xmlns:xlink="http://www.w3.org/1999/xlink" width="400" height="400" viewBox="0, 0, 400,400"><g id="svgg"><path id="path0" d="M117.138 55.053 C 116.031 55.814,115.456 56.659,114.770 58.529 C 114.272 59.888,113.079 62.792,112.119 64.982 L 110.373 68.964 110.973 83.382 C 112.642 123.474,114.347 197.553,113.823 207.200 C 113.083 220.838,110.564 232.924,107.155 239.200 C 105.160 242.872,103.453 252.608,102.015 268.513 C 100.101 289.684,98.371 298.946,95.245 304.767 C 94.513 306.128,94.515 306.143,95.618 308.575 C 96.227 309.919,97.204 312.775,97.789 314.923 C 98.655 318.100,99.216 319.307,100.802 321.403 C 101.874 322.819,103.515 325.288,104.448 326.889 C 106.732 330.807,106.882 330.959,110.290 332.797 C 111.923 333.678,114.551 335.256,116.130 336.304 C 117.708 337.351,119.703 338.566,120.563 339.004 C 121.422 339.442,123.132 340.825,124.363 342.078 C 125.736 343.476,127.504 344.769,128.942 345.426 L 131.284 346.497 136.701 345.416 C 144.734 343.813,144.093 344.418,147.438 335.280 L 148.800 331.560 148.800 280.995 C 148.800 224.198,148.566 228.746,151.727 224.163 C 153.970 220.912,155.618 220.039,161.099 219.200 C 163.744 218.795,166.603 218.270,167.454 218.034 C 169.509 217.463,242.534 217.431,245.627 218.000 C 246.822 218.219,249.780 218.656,252.200 218.971 L 256.600 219.542 258.629 221.713 C 260.679 223.907,261.775 225.832,262.949 229.304 C 264.370 233.504,260.958 250.555,257.213 257.974 C 255.029 262.300,253.249 273.091,251.565 292.200 C 251.100 297.480,250.569 302.700,250.385 303.800 C 250.166 305.114,250.256 307.515,250.648 310.800 C 250.976 313.550,251.334 316.559,251.444 317.487 C 251.706 319.687,254.419 323.398,257.346 325.560 C 258.551 326.450,260.136 327.943,260.868 328.877 C 263.937 332.790,266.557 335.015,270.073 336.694 C 273.852 338.498,276.245 340.403,277.381 342.512 C 277.781 343.256,278.850 344.327,279.755 344.891 L 281.400 345.917 287.613 345.419 C 295.580 344.781,294.998 345.191,298.865 337.482 L 302.117 331.000 301.853 302.400 C 301.391 252.419,301.532 206.866,302.196 191.000 C 303.350 163.456,304.496 143.197,305.792 127.400 C 306.117 123.440,306.566 114.530,306.789 107.600 C 307.012 100.670,307.300 91.940,307.429 88.200 C 307.697 80.421,307.404 79.008,304.957 76.299 C 304.163 75.421,302.869 73.330,302.080 71.652 C 301.291 69.973,300.455 68.463,300.222 68.297 C 297.599 66.412,294.041 64.617,291.234 63.761 C 287.013 62.474,285.127 61.549,282.800 59.626 C 280.588 57.798,276.446 56.167,272.200 55.454 C 267.399 54.647,267.581 54.452,265.197 62.961 L 263.540 68.877 263.964 93.939 C 264.197 107.722,264.509 130.251,264.656 144.001 L 264.925 169.003 264.042 171.001 C 262.938 173.500,261.151 175.390,258.713 176.636 L 256.827 177.600 211.313 177.582 C 155.735 177.559,156.096 177.588,151.696 172.853 C 148.769 169.703,148.768 169.626,150.626 103.104 L 151.237 81.208 150.265 78.104 C 149.731 76.397,148.981 73.536,148.599 71.746 C 147.706 67.565,146.212 66.270,140.400 64.641 C 135.528 63.276,129.318 60.336,126.058 57.851 C 124.179 56.419,118.932 53.718,118.624 54.024 C 118.611 54.037,117.942 54.500,117.138 55.053 " stroke="none" fill="#ebebfc" fill-rule="evenodd"></path><path id="path1" d="M115.600 52.026 C 111.923 54.050,110.705 55.581,107.378 62.363 L 104.318 68.600 104.579 74.200 C 104.723 77.280,105.277 86.820,105.810 95.400 C 108.026 131.041,109.932 177.395,110.046 198.400 C 110.108 209.847,109.138 216.781,106.382 224.600 C 102.775 234.832,101.416 242.148,99.214 263.200 C 97.768 277.026,96.251 284.583,92.992 294.200 C 92.023 297.060,90.898 300.949,90.492 302.842 L 89.754 306.285 90.682 310.442 C 92.160 317.072,92.686 318.294,95.457 321.542 C 96.853 323.177,99.205 326.335,100.684 328.558 C 103.802 333.244,104.788 334.230,108.600 336.470 C 112.118 338.538,115.850 341.127,119.200 343.824 C 125.396 348.813,129.301 349.964,136.884 349.037 C 147.310 347.761,148.990 346.197,151.836 335.111 L 152.891 331.000 152.609 281.356 L 152.327 231.711 153.221 229.956 C 155.364 225.749,156.047 225.367,164.925 223.403 C 169.007 222.500,243.706 222.511,247.600 223.416 C 255.277 225.199,256.813 226.084,258.696 229.812 L 259.499 231.400 258.591 235.400 C 258.092 237.600,256.768 242.190,255.649 245.600 C 252.628 254.804,251.324 262.035,249.589 279.200 C 248.740 287.596,246.830 300.167,245.839 303.876 C 245.281 305.968,246.918 316.556,248.354 320.140 C 250.175 324.686,260.920 335.786,266.804 339.200 C 269.022 340.487,271.943 342.661,273.842 344.437 C 278.898 349.168,279.513 349.375,287.499 349.038 C 298.267 348.583,300.951 346.871,305.218 337.734 L 308.104 331.554 307.752 279.077 C 307.361 220.732,307.388 211.140,307.982 197.800 C 308.526 185.610,309.097 169.700,309.600 152.800 C 311.488 89.279,311.574 81.379,310.425 77.579 C 307.495 67.895,305.848 66.331,291.600 59.696 C 289.602 58.766,287.019 57.118,285.334 55.699 C 281.904 52.810,281.398 52.632,274.120 51.756 L 268.441 51.073 266.267 52.715 C 263.302 54.953,262.723 56.079,261.010 62.934 L 259.528 68.867 259.963 82.334 C 261.358 125.490,262.054 168.335,261.380 169.600 C 260.663 170.945,259.301 172.415,257.562 173.720 L 256.124 174.800 212.562 174.800 C 175.167 174.800,168.548 174.713,165.810 174.189 C 155.411 172.199,153.058 170.657,153.400 166.053 C 153.508 164.594,153.785 157.550,154.015 150.400 C 154.697 129.206,156.053 97.846,156.769 86.686 L 157.097 81.572 155.400 77.467 C 154.467 75.209,153.394 72.295,153.015 70.991 C 151.762 66.683,148.650 63.951,142.129 61.434 C 137.445 59.626,136.376 59.054,133.249 56.679 C 126.770 51.760,119.543 49.855,115.600 52.026 M121.074 54.951 C 122.409 55.474,124.651 56.779,126.058 57.851 C 129.318 60.336,135.528 63.276,140.400 64.641 C 146.212 66.270,147.706 67.565,148.599 71.746 C 148.981 73.536,149.731 76.397,150.265 78.104 L 151.237 81.208 150.626 103.104 C 148.768 169.626,148.769 169.703,151.696 172.853 C 156.096 177.588,155.735 177.559,211.313 177.582 L 256.827 177.600 258.713 176.636 C 261.151 175.390,262.938 173.500,264.042 171.001 L 264.925 169.003 264.656 144.001 C 264.509 130.251,264.197 107.722,263.964 93.939 L 263.540 68.877 265.197 62.961 C 267.581 54.452,267.399 54.647,272.200 55.454 C 276.446 56.167,280.588 57.798,282.800 59.626 C 285.127 61.549,287.013 62.474,291.234 63.761 C 294.041 64.617,297.599 66.412,300.222 68.297 C 300.455 68.463,301.291 69.973,302.080 71.652 C 302.869 73.330,304.163 75.421,304.957 76.299 C 307.404 79.008,307.697 80.421,307.429 88.200 C 307.300 91.940,307.012 100.670,306.789 107.600 C 306.566 114.530,306.117 123.440,305.792 127.400 C 304.496 143.197,303.350 163.456,302.196 191.000 C 301.532 206.866,301.391 252.419,301.853 302.400 L 302.117 331.000 298.865 337.482 C 294.998 345.191,295.580 344.781,287.613 345.419 L 281.400 345.917 279.755 344.891 C 278.850 344.327,277.781 343.256,277.381 342.512 C 276.245 340.403,273.852 338.498,270.073 336.694 C 266.557 335.015,263.937 332.790,260.868 328.877 C 260.136 327.943,258.551 326.450,257.346 325.560 C 254.419 323.398,251.706 319.687,251.444 317.487 C 251.334 316.559,250.976 313.550,250.648 310.800 C 250.256 307.515,250.166 305.114,250.385 303.800 C 250.569 302.700,251.100 297.480,251.565 292.200 C 253.249 273.091,255.029 262.300,257.213 257.974 C 260.958 250.555,264.370 233.504,262.949 229.304 C 261.775 225.832,260.679 223.907,258.629 221.713 L 256.600 219.542 252.200 218.971 C 249.780 218.656,246.822 218.219,245.627 218.000 C 242.534 217.431,169.509 217.463,167.454 218.034 C 166.603 218.270,163.744 218.795,161.099 219.200 C 155.618 220.039,153.970 220.912,151.727 224.163 C 148.566 228.746,148.800 224.198,148.800 280.995 L 148.800 331.560 147.438 335.280 C 144.093 344.418,144.734 343.813,136.701 345.416 L 131.284 346.497 128.942 345.426 C 127.504 344.769,125.736 343.476,124.363 342.078 C 123.132 340.825,121.422 339.442,120.563 339.004 C 119.703 338.566,117.708 337.351,116.130 336.304 C 114.551 335.256,111.923 333.678,110.290 332.797 C 106.882 330.959,106.732 330.807,104.448 326.889 C 103.515 325.288,101.874 322.819,100.802 321.403 C 99.216 319.307,98.655 318.100,97.789 314.923 C 97.204 312.775,96.227 309.919,95.618 308.575 C 94.515 306.143,94.513 306.128,95.245 304.767 C 98.371 298.946,100.101 289.684,102.015 268.513 C 103.453 252.608,105.160 242.872,107.155 239.200 C 110.564 232.924,113.083 220.838,113.823 207.200 C 114.347 197.553,112.642 123.474,110.973 83.382 L 110.373 68.964 112.119 64.982 C 113.079 62.792,114.272 59.888,114.770 58.529 C 115.456 56.659,116.031 55.814,117.138 55.053 C 117.942 54.500,118.611 54.037,118.624 54.024 C 118.637 54.011,119.740 54.428,121.074 54.951 " stroke="none" fill="#acacfc" fill-rule="evenodd"></path><path id="path2" d="M115.880 50.197 C 112.278 51.694,108.000 55.224,108.000 56.701 C 108.000 56.884,107.070 58.646,105.934 60.617 C 102.604 66.392,102.268 67.515,102.355 72.600 C 102.547 83.772,104.316 113.967,105.989 134.600 C 106.631 142.517,108.254 179.857,108.658 196.000 L 108.904 205.800 107.652 212.244 C 106.841 216.418,105.968 219.643,105.172 221.397 C 102.573 227.129,100.273 238.776,99.009 252.600 C 97.411 270.078,95.380 281.626,92.818 287.800 C 89.809 295.053,87.781 304.714,88.420 308.746 C 89.672 316.641,90.432 318.869,92.600 321.000 C 95.220 323.575,97.016 325.831,99.609 329.800 C 102.292 333.909,103.646 335.322,106.600 337.101 C 111.094 339.807,114.784 342.412,117.294 344.653 C 120.288 347.324,123.177 348.849,127.764 350.178 L 131.165 351.164 136.683 350.563 C 148.809 349.241,150.821 347.378,153.578 334.922 C 154.381 331.296,154.388 330.542,154.139 281.322 L 153.886 231.400 154.791 229.885 C 155.948 227.950,156.833 227.513,163.067 225.805 L 168.192 224.400 206.231 224.400 L 244.270 224.400 248.191 225.577 C 258.274 228.605,259.157 230.292,255.404 239.366 C 252.047 247.482,250.227 257.331,248.612 276.123 C 247.702 286.702,245.186 301.229,243.564 305.257 C 243.243 306.054,243.284 306.741,243.730 308.057 C 244.055 309.015,244.712 311.690,245.189 314.000 C 247.345 324.432,256.479 335.802,266.933 341.067 C 268.913 342.064,270.484 343.282,272.337 345.257 C 274.307 347.357,275.671 348.389,277.887 349.455 L 280.825 350.868 287.113 350.603 C 300.240 350.049,305.191 346.346,309.429 333.911 L 310.345 331.222 309.969 272.111 C 309.763 239.600,309.689 211.200,309.806 209.000 C 310.410 197.607,312.000 134.418,312.633 96.600 C 313.071 70.444,310.662 65.334,295.313 59.857 C 291.742 58.583,289.686 57.312,286.610 54.477 C 283.335 51.460,282.013 50.979,274.920 50.218 L 268.840 49.566 266.912 50.543 C 262.405 52.827,261.065 55.175,258.968 64.464 L 257.967 68.898 258.569 86.349 C 259.183 104.129,259.744 124.514,260.398 152.800 L 260.763 168.600 259.777 170.028 C 259.235 170.814,258.208 171.894,257.495 172.428 L 256.200 173.400 212.511 173.509 L 168.821 173.617 164.058 172.415 C 158.503 171.012,155.687 169.893,155.323 168.943 C 154.983 168.057,155.846 145.855,156.813 130.600 C 158.144 109.607,158.438 104.459,158.971 92.800 L 159.491 81.400 157.387 76.800 C 156.230 74.270,154.952 71.210,154.547 70.000 C 153.367 66.472,149.568 62.901,145.215 61.227 C 139.910 59.186,136.448 57.290,134.237 55.214 C 131.559 52.698,129.748 51.830,124.178 50.394 C 118.669 48.974,118.817 48.977,115.880 50.197 M122.739 51.610 C 126.873 52.756,130.184 54.353,133.249 56.679 C 136.376 59.054,137.445 59.626,142.129 61.434 C 148.650 63.951,151.762 66.683,153.015 70.991 C 153.394 72.295,154.467 75.209,155.400 77.467 L 157.097 81.572 156.769 86.686 C 156.053 97.846,154.697 129.206,154.015 150.400 C 153.785 157.550,153.508 164.594,153.400 166.053 C 153.058 170.657,155.411 172.199,165.810 174.189 C 168.548 174.713,175.167 174.800,212.562 174.800 L 256.124 174.800 257.562 173.720 C 259.301 172.415,260.663 170.945,261.380 169.600 C 262.054 168.335,261.358 125.490,259.963 82.334 L 259.528 68.867 261.010 62.934 C 262.723 56.079,263.302 54.953,266.267 52.715 L 268.441 51.073 274.120 51.756 C 281.398 52.632,281.904 52.810,285.334 55.699 C 287.019 57.118,289.602 58.766,291.600 59.696 C 305.848 66.331,307.495 67.895,310.425 77.579 C 311.574 81.379,311.488 89.279,309.600 152.800 C 309.097 169.700,308.526 185.610,307.982 197.800 C 307.388 211.140,307.361 220.732,307.752 279.077 L 308.104 331.554 305.218 337.734 C 300.951 346.871,298.267 348.583,287.499 349.038 C 279.513 349.375,278.898 349.168,273.842 344.437 C 271.943 342.661,269.022 340.487,266.804 339.200 C 260.920 335.786,250.175 324.686,248.354 320.140 C 246.918 316.556,245.281 305.968,245.839 303.876 C 246.830 300.167,248.740 287.596,249.589 279.200 C 251.324 262.035,252.628 254.804,255.649 245.600 C 256.768 242.190,258.092 237.600,258.591 235.400 L 259.499 231.400 258.696 229.812 C 256.813 226.084,255.277 225.199,247.600 223.416 C 243.706 222.511,169.007 222.500,164.925 223.403 C 156.047 225.367,155.364 225.749,153.221 229.956 L 152.327 231.711 152.609 281.356 L 152.891 331.000 151.836 335.111 C 148.990 346.197,147.310 347.761,136.884 349.037 C 129.301 349.964,125.396 348.813,119.200 343.824 C 115.850 341.127,112.118 338.538,108.600 336.470 C 104.788 334.230,103.802 333.244,100.684 328.558 C 99.205 326.335,96.853 323.177,95.457 321.542 C 92.686 318.294,92.160 317.072,90.682 310.442 L 89.754 306.285 90.492 302.842 C 90.898 300.949,92.023 297.060,92.992 294.200 C 96.251 284.583,97.768 277.026,99.214 263.200 C 101.416 242.148,102.775 234.832,106.382 224.600 C 109.138 216.781,110.108 209.847,110.046 198.400 C 109.932 177.395,108.026 131.041,105.810 95.400 C 105.277 86.820,104.723 77.280,104.579 74.200 L 104.318 68.600 107.378 62.363 C 112.346 52.235,115.934 49.724,122.739 51.610 " stroke="none" fill="#9c9cfc" fill-rule="evenodd"></path><path id="path3" d="M114.681 48.977 C 108.876 51.025,103.230 57.910,100.804 65.897 C 99.849 69.040,99.849 68.996,101.216 103.400 C 102.058 124.588,104.367 157.906,105.986 172.200 C 107.868 188.833,107.543 208.376,105.303 213.200 C 101.502 221.382,99.494 230.775,98.205 246.400 C 96.413 268.107,94.972 276.921,92.440 281.658 C 89.221 287.678,86.044 301.814,86.547 307.874 C 87.353 317.583,88.453 320.521,92.412 323.541 C 94.225 324.924,97.954 329.736,99.383 332.539 C 100.510 334.748,102.850 337.009,105.286 338.243 C 108.293 339.765,113.110 343.080,114.132 344.329 C 119.193 350.519,126.688 352.918,137.791 351.901 C 149.816 350.800,152.346 348.596,154.903 337.000 L 155.785 333.000 155.792 281.800 L 155.800 230.600 157.644 229.718 C 158.659 229.233,161.594 228.198,164.168 227.418 L 168.846 226.000 206.178 226.000 L 243.509 226.000 246.654 227.053 C 250.173 228.231,253.742 229.743,255.100 230.630 L 256.001 231.219 254.657 233.909 C 251.157 240.915,249.478 249.433,248.017 267.600 C 246.434 287.280,245.024 295.802,242.580 300.476 C 239.611 306.155,239.610 306.405,242.518 312.290 C 243.297 313.865,244.142 316.199,244.398 317.477 C 246.036 325.683,256.166 337.559,265.262 341.940 C 268.318 343.411,269.276 344.080,269.846 345.138 C 272.416 349.907,276.709 351.737,285.759 351.918 C 301.130 352.227,307.737 347.946,311.427 335.288 L 312.444 331.800 312.322 264.800 C 312.237 218.156,312.350 192.756,312.694 181.200 C 313.852 142.314,314.504 81.658,313.807 77.641 C 311.905 66.680,308.176 62.496,297.175 58.982 C 292.726 57.561,291.321 56.711,289.398 54.278 C 286.411 50.498,283.346 49.260,275.316 48.590 L 268.600 48.029 265.727 49.423 C 261.014 51.710,259.767 53.764,257.779 62.519 L 256.398 68.600 256.996 84.200 C 257.756 103.990,258.286 120.507,258.787 140.000 C 259.005 148.470,259.263 158.436,259.362 162.147 L 259.541 168.894 258.000 170.547 L 256.458 172.200 211.929 172.200 L 167.400 172.200 162.800 170.705 C 160.270 169.882,158.008 169.072,157.773 168.905 C 157.473 168.690,157.554 166.107,158.048 160.200 C 159.996 136.874,162.164 82.566,161.273 79.400 C 160.610 77.045,158.709 73.129,157.350 71.318 C 156.820 70.613,156.026 69.194,155.585 68.165 C 153.796 63.992,150.838 61.537,145.462 59.765 C 141.035 58.306,139.062 57.097,136.000 53.971 C 131.278 49.149,121.008 46.743,114.681 48.977 M124.178 50.394 C 129.748 51.830,131.559 52.698,134.237 55.214 C 136.448 57.290,139.910 59.186,145.215 61.227 C 149.568 62.901,153.367 66.472,154.547 70.000 C 154.952 71.210,156.230 74.270,157.387 76.800 L 159.491 81.400 158.971 92.800 C 158.438 104.459,158.144 109.607,156.813 130.600 C 155.846 145.855,154.983 168.057,155.323 168.943 C 155.687 169.893,158.503 171.012,164.058 172.415 L 168.821 173.617 212.511 173.509 L 256.200 173.400 257.495 172.428 C 258.208 171.894,259.235 170.814,259.777 170.028 L 260.763 168.600 260.398 152.800 C 259.744 124.514,259.183 104.129,258.569 86.349 L 257.967 68.898 258.968 64.464 C 261.065 55.175,262.405 52.827,266.912 50.543 L 268.840 49.566 274.920 50.218 C 282.013 50.979,283.335 51.460,286.610 54.477 C 289.686 57.312,291.742 58.583,295.313 59.857 C 310.662 65.334,313.071 70.444,312.633 96.600 C 312.000 134.418,310.410 197.607,309.806 209.000 C 309.689 211.200,309.763 239.600,309.969 272.111 L 310.345 331.222 309.429 333.911 C 305.191 346.346,300.240 350.049,287.113 350.603 L 280.825 350.868 277.887 349.455 C 275.671 348.389,274.307 347.357,272.337 345.257 C 270.484 343.282,268.913 342.064,266.933 341.067 C 256.479 335.802,247.345 324.432,245.189 314.000 C 244.712 311.690,244.055 309.015,243.730 308.057 C 243.284 306.741,243.243 306.054,243.564 305.257 C 245.186 301.229,247.702 286.702,248.612 276.123 C 250.227 257.331,252.047 247.482,255.404 239.366 C 259.157 230.292,258.274 228.605,248.191 225.577 L 244.270 224.400 206.231 224.400 L 168.192 224.400 163.067 225.805 C 156.833 227.513,155.948 227.950,154.791 229.885 L 153.886 231.400 154.139 281.322 C 154.388 330.542,154.381 331.296,153.578 334.922 C 150.821 347.378,148.809 349.241,136.683 350.563 L 131.165 351.164 127.764 350.178 C 123.177 348.849,120.288 347.324,117.294 344.653 C 114.784 342.412,111.094 339.807,106.600 337.101 C 103.646 335.322,102.292 333.909,99.609 329.800 C 97.016 325.831,95.220 323.575,92.600 321.000 C 90.432 318.869,89.672 316.641,88.420 308.746 C 87.781 304.714,89.809 295.053,92.818 287.800 C 95.380 281.626,97.411 270.078,99.009 252.600 C 100.273 238.776,102.573 227.129,105.172 221.397 C 105.968 219.643,106.841 216.418,107.652 212.244 L 108.904 205.800 108.658 196.000 C 108.254 179.857,106.631 142.517,105.989 134.600 C 104.316 113.967,102.547 83.772,102.355 72.600 C 102.268 67.515,102.604 66.392,105.934 60.617 C 107.070 58.646,108.000 56.884,108.000 56.701 C 108.000 55.224,112.278 51.694,115.880 50.197 C 118.817 48.977,118.669 48.974,124.178 50.394 " stroke="none" fill="#8c8cfc" fill-rule="evenodd"></path><path id="path4" d="M0.000 200.000 L 0.000 400.000 200.000 400.000 L 400.000 400.000 400.000 200.000 L 400.000 0.000 200.000 0.000 L 0.000 0.000 0.000 200.000 M124.849 48.810 C 131.256 50.116,133.026 50.935,136.000 53.971 C 139.062 57.097,141.035 58.306,145.462 59.765 C 150.838 61.537,153.796 63.992,155.585 68.165 C 156.026 69.194,156.820 70.613,157.350 71.318 C 158.709 73.129,160.610 77.045,161.273 79.400 C 162.164 82.566,159.996 136.874,158.048 160.200 C 157.554 166.107,157.473 168.690,157.773 168.905 C 158.008 169.072,160.270 169.882,162.800 170.705 L 167.400 172.200 211.929 172.200 L 256.458 172.200 258.000 170.547 L 259.541 168.894 259.362 162.147 C 259.263 158.436,259.005 148.470,258.787 140.000 C 258.286 120.507,257.756 103.990,256.996 84.200 L 256.398 68.600 257.779 62.519 C 259.767 53.764,261.014 51.710,265.727 49.423 L 268.600 48.029 275.316 48.590 C 283.346 49.260,286.411 50.498,289.398 54.278 C 291.321 56.711,292.726 57.561,297.175 58.982 C 308.176 62.496,311.905 66.680,313.807 77.641 C 314.504 81.658,313.852 142.314,312.694 181.200 C 312.350 192.756,312.237 218.156,312.322 264.800 L 312.444 331.800 311.427 335.288 C 307.737 347.946,301.130 352.227,285.759 351.918 C 276.709 351.737,272.416 349.907,269.846 345.138 C 269.276 344.080,268.318 343.411,265.262 341.940 C 256.166 337.559,246.036 325.683,244.398 317.477 C 244.142 316.199,243.297 313.865,242.518 312.290 C 239.610 306.405,239.611 306.155,242.580 300.476 C 245.024 295.802,246.434 287.280,248.017 267.600 C 249.478 249.433,251.157 240.915,254.657 233.909 L 256.001 231.219 255.100 230.630 C 253.742 229.743,250.173 228.231,246.654 227.053 L 243.509 226.000 206.178 226.000 L 168.846 226.000 164.168 227.418 C 161.594 228.198,158.659 229.233,157.644 229.718 L 155.800 230.600 155.792 281.800 L 155.785 333.000 154.903 337.000 C 152.346 348.596,149.816 350.800,137.791 351.901 C 126.688 352.918,119.193 350.519,114.132 344.329 C 113.110 343.080,108.293 339.765,105.286 338.243 C 102.850 337.009,100.510 334.748,99.383 332.539 C 97.954 329.736,94.225 324.924,92.412 323.541 C 88.453 320.521,87.353 317.583,86.547 307.874 C 86.044 301.814,89.221 287.678,92.440 281.658 C 94.972 276.921,96.413 268.107,98.205 246.400 C 99.494 230.775,101.502 221.382,105.303 213.200 C 107.543 208.376,107.868 188.833,105.986 172.200 C 104.367 157.906,102.058 124.588,101.216 103.400 C 99.596 62.645,99.368 64.858,106.114 55.852 C 111.402 48.792,116.098 47.027,124.849 48.810 " stroke="none" fill="#7c7cfc" fill-rule="evenodd"></path></g></svg>